<svg width="45" height="24" viewBox="0 0 45 24" fill="none" xmlns="http://www.w3.org/2000/svg">
<rect width="45" height="24" rx="8" fill="#EBEBFF"/>
<path d="M12.444 12.688C12.444 12.008 12.58 11.412 12.852 10.9C13.132 10.38 13.516 9.98 14.004 9.7C14.492 9.42 15.052 9.28 15.684 9.28C16.484 9.28 17.144 9.472 17.664 9.856C18.192 10.232 18.548 10.772 18.732 11.476H17.256C17.136 11.148 16.944 10.892 16.68 10.708C16.416 10.524 16.084 10.432 15.684 10.432C15.124 10.432 14.676 10.632 14.34 11.032C14.012 11.424 13.848 11.976 13.848 12.688C13.848 13.4 14.012 13.956 14.34 14.356C14.676 14.756 15.124 14.956 15.684 14.956C16.476 14.956 17 14.608 17.256 13.912H18.732C18.54 14.584 18.18 15.12 17.652 15.52C17.124 15.912 16.468 16.108 15.684 16.108C15.052 16.108 14.492 15.968 14.004 15.688C13.516 15.4 13.132 15 12.852 14.488C12.58 13.968 12.444 13.368 12.444 12.688ZM22.8553 16.108C22.3353 16.108 21.8673 16.016 21.4513 15.832C21.0433 15.64 20.7193 15.384 20.4793 15.064C20.2393 14.736 20.1113 14.372 20.0953 13.972H21.5113C21.5353 14.252 21.6673 14.488 21.9073 14.68C22.1553 14.864 22.4633 14.956 22.8313 14.956C23.2153 14.956 23.5113 14.884 23.7193 14.74C23.9353 14.588 24.0433 14.396 24.0433 14.164C24.0433 13.916 23.9233 13.732 23.6833 13.612C23.4513 13.492 23.0793 13.36 22.5673 13.216C22.0713 13.08 21.6673 12.948 21.3553 12.82C21.0433 12.692 20.7713 12.496 20.5393 12.232C20.3153 11.968 20.2033 11.62 20.2033 11.188C20.2033 10.836 20.3073 10.516 20.5153 10.228C20.7233 9.932 21.0193 9.7 21.4033 9.532C21.7953 9.364 22.2433 9.28 22.7473 9.28C23.4993 9.28 24.1033 9.472 24.5593 9.856C25.0233 10.232 25.2713 10.748 25.3033 11.404H23.9353C23.9113 11.108 23.7913 10.872 23.5753 10.696C23.3593 10.52 23.0673 10.432 22.6993 10.432C22.3393 10.432 22.0633 10.5 21.8713 10.636C21.6793 10.772 21.5833 10.952 21.5833 11.176C21.5833 11.352 21.6473 11.5 21.7753 11.62C21.9033 11.74 22.0593 11.836 22.2433 11.908C22.4273 11.972 22.6993 12.056 23.0593 12.16C23.5393 12.288 23.9313 12.42 24.2353 12.556C24.5473 12.684 24.8153 12.876 25.0393 13.132C25.2633 13.388 25.3793 13.728 25.3873 14.152C25.3873 14.528 25.2833 14.864 25.0753 15.16C24.8673 15.456 24.5713 15.688 24.1873 15.856C23.8113 16.024 23.3673 16.108 22.8553 16.108ZM29.6255 16.108C29.1055 16.108 28.6375 16.016 28.2215 15.832C27.8135 15.64 27.4895 15.384 27.2495 15.064C27.0095 14.736 26.8815 14.372 26.8655 13.972H28.2815C28.3055 14.252 28.4375 14.488 28.6775 14.68C28.9255 14.864 29.2335 14.956 29.6015 14.956C29.9855 14.956 30.2815 14.884 30.4895 14.74C30.7055 14.588 30.8135 14.396 30.8135 14.164C30.8135 13.916 30.6935 13.732 30.4535 13.612C30.2215 13.492 29.8495 13.36 29.3375 13.216C28.8415 13.08 28.4375 12.948 28.1255 12.82C27.8135 12.692 27.5415 12.496 27.3095 12.232C27.0855 11.968 26.9735 11.62 26.9735 11.188C26.9735 10.836 27.0775 10.516 27.2855 10.228C27.4935 9.932 27.7895 9.7 28.1735 9.532C28.5655 9.364 29.0135 9.28 29.5175 9.28C30.2695 9.28 30.8735 9.472 31.3295 9.856C31.7935 10.232 32.0415 10.748 32.0735 11.404H30.7055C30.6815 11.108 30.5615 10.872 30.3455 10.696C30.1295 10.52 29.8375 10.432 29.4695 10.432C29.1095 10.432 28.8335 10.5 28.6415 10.636C28.4495 10.772 28.3535 10.952 28.3535 11.176C28.3535 11.352 28.4175 11.5 28.5455 11.62C28.6735 11.74 28.8295 11.836 29.0135 11.908C29.1975 11.972 29.4695 12.056 29.8295 12.16C30.3095 12.288 30.7015 12.42 31.0055 12.556C31.3175 12.684 31.5855 12.876 31.8095 13.132C32.0335 13.388 32.1495 13.728 32.1575 14.152C32.1575 14.528 32.0535 14.864 31.8455 15.16C31.6375 15.456 31.3415 15.688 30.9575 15.856C30.5815 16.024 30.1375 16.108 29.6255 16.108Z" fill="#6070FF"/>
</svg>
