<svg width="89" height="24" viewBox="0 0 89 24" fill="none" xmlns="http://www.w3.org/2000/svg">
<rect width="89" height="24" rx="8" fill="#EBEBFF"/>
<path d="M13.596 8.512C13.348 8.512 13.14 8.428 12.972 8.26C12.804 8.092 12.72 7.884 12.72 7.636C12.72 7.388 12.804 7.18 12.972 7.012C13.14 6.844 13.348 6.76 13.596 6.76C13.836 6.76 14.04 6.844 14.208 7.012C14.376 7.18 14.46 7.388 14.46 7.636C14.46 7.884 14.376 8.092 14.208 8.26C14.04 8.428 13.836 8.512 13.596 8.512ZM14.268 17.296C14.268 17.944 14.104 18.412 13.776 18.7C13.456 18.996 12.988 19.144 12.372 19.144H11.664V17.992H12.132C12.412 17.992 12.608 17.936 12.72 17.824C12.84 17.72 12.9 17.544 12.9 17.296V9.388H14.268V17.296ZM15.9681 12.664C15.9681 12 16.1041 11.412 16.3761 10.9C16.6561 10.388 17.0321 9.992 17.5041 9.712C17.9841 9.424 18.5121 9.28 19.0881 9.28C19.6081 9.28 20.0601 9.384 20.4441 9.592C20.8361 9.792 21.1481 10.044 21.3801 10.348V9.388H22.7601V16H21.3801V15.016C21.1481 15.328 20.8321 15.588 20.4321 15.796C20.0321 16.004 19.5761 16.108 19.0641 16.108C18.4961 16.108 17.9761 15.964 17.5041 15.676C17.0321 15.38 16.6561 14.972 16.3761 14.452C16.1041 13.924 15.9681 13.328 15.9681 12.664ZM21.3801 12.688C21.3801 12.232 21.2841 11.836 21.0921 11.5C20.9081 11.164 20.6641 10.908 20.3601 10.732C20.0561 10.556 19.7281 10.468 19.3761 10.468C19.0241 10.468 18.6961 10.556 18.3921 10.732C18.0881 10.9 17.8401 11.152 17.6481 11.488C17.4641 11.816 17.3721 12.208 17.3721 12.664C17.3721 13.12 17.4641 13.52 17.6481 13.864C17.8401 14.208 18.0881 14.472 18.3921 14.656C18.7041 14.832 19.0321 14.92 19.3761 14.92C19.7281 14.92 20.0561 14.832 20.3601 14.656C20.6641 14.48 20.9081 14.224 21.0921 13.888C21.2841 13.544 21.3801 13.144 21.3801 12.688ZM27.4729 14.776L29.3449 9.388H30.7969L28.2769 16H26.6449L24.1369 9.388H25.6009L27.4729 14.776ZM31.7349 12.664C31.7349 12 31.8709 11.412 32.1429 10.9C32.4229 10.388 32.7989 9.992 33.2709 9.712C33.7509 9.424 34.2789 9.28 34.8549 9.28C35.3749 9.28 35.8269 9.384 36.2109 9.592C36.6029 9.792 36.9149 10.044 37.1469 10.348V9.388H38.5269V16H37.1469V15.016C36.9149 15.328 36.5989 15.588 36.1989 15.796C35.7989 16.004 35.3429 16.108 34.8309 16.108C34.2629 16.108 33.7429 15.964 33.2709 15.676C32.7989 15.38 32.4229 14.972 32.1429 14.452C31.8709 13.924 31.7349 13.328 31.7349 12.664ZM37.1469 12.688C37.1469 12.232 37.0509 11.836 36.8589 11.5C36.6749 11.164 36.4309 10.908 36.1269 10.732C35.8229 10.556 35.4949 10.468 35.1429 10.468C34.7909 10.468 34.4629 10.556 34.1589 10.732C33.8549 10.9 33.6069 11.152 33.4149 11.488C33.2309 11.816 33.1389 12.208 33.1389 12.664C33.1389 13.12 33.2309 13.52 33.4149 13.864C33.6069 14.208 33.8549 14.472 34.1589 14.656C34.4709 14.832 34.7989 14.92 35.1429 14.92C35.4949 14.92 35.8229 14.832 36.1269 14.656C36.4309 14.48 36.6749 14.224 36.8589 13.888C37.0509 13.544 37.1469 13.144 37.1469 12.688ZM43.4318 16.084C42.8718 16.084 42.3678 15.988 41.9198 15.796C41.4718 15.596 41.1198 15.316 40.8638 14.956C40.6078 14.596 40.4798 14.176 40.4798 13.696H41.9438C41.9758 14.056 42.1158 14.352 42.3638 14.584C42.6198 14.816 42.9758 14.932 43.4318 14.932C43.9038 14.932 44.2718 14.82 44.5358 14.596C44.7998 14.364 44.9318 14.068 44.9318 13.708C44.9318 13.428 44.8478 13.2 44.6798 13.024C44.5198 12.848 44.3158 12.712 44.0678 12.616C43.8278 12.52 43.4918 12.416 43.0598 12.304C42.5158 12.16 42.0718 12.016 41.7278 11.872C41.3918 11.72 41.1038 11.488 40.8638 11.176C40.6238 10.864 40.5038 10.448 40.5038 9.928C40.5038 9.448 40.6238 9.028 40.8638 8.668C41.1038 8.308 41.4398 8.032 41.8718 7.84C42.3038 7.648 42.8038 7.552 43.3718 7.552C44.1798 7.552 44.8398 7.756 45.3518 8.164C45.8718 8.564 46.1598 9.116 46.2158 9.82H44.7038C44.6798 9.516 44.5358 9.256 44.2718 9.04C44.0078 8.824 43.6598 8.716 43.2278 8.716C42.8358 8.716 42.5158 8.816 42.2678 9.016C42.0198 9.216 41.8958 9.504 41.8958 9.88C41.8958 10.136 41.9718 10.348 42.1238 10.516C42.2838 10.676 42.4838 10.804 42.7238 10.9C42.9638 10.996 43.2918 11.1 43.7078 11.212C44.2598 11.364 44.7078 11.516 45.0518 11.668C45.4038 11.82 45.6998 12.056 45.9398 12.376C46.1878 12.688 46.3118 13.108 46.3118 13.636C46.3118 14.06 46.1958 14.46 45.9638 14.836C45.7398 15.212 45.4078 15.516 44.9678 15.748C44.5358 15.972 44.0238 16.084 43.4318 16.084ZM47.8299 12.688C47.8299 12.008 47.9659 11.412 48.2379 10.9C48.5179 10.38 48.9019 9.98 49.3899 9.7C49.8779 9.42 50.4379 9.28 51.0699 9.28C51.8699 9.28 52.5299 9.472 53.0499 9.856C53.5779 10.232 53.9339 10.772 54.1179 11.476H52.6419C52.5219 11.148 52.3299 10.892 52.0659 10.708C51.8019 10.524 51.4699 10.432 51.0699 10.432C50.5099 10.432 50.0619 10.632 49.7259 11.032C49.3979 11.424 49.2339 11.976 49.2339 12.688C49.2339 13.4 49.3979 13.956 49.7259 14.356C50.0619 14.756 50.5099 14.956 51.0699 14.956C51.8619 14.956 52.3859 14.608 52.6419 13.912H54.1179C53.9259 14.584 53.5659 15.12 53.0379 15.52C52.5099 15.912 51.8539 16.108 51.0699 16.108C50.4379 16.108 49.8779 15.968 49.3899 15.688C48.9019 15.4 48.5179 15 48.2379 14.488C47.9659 13.968 47.8299 13.368 47.8299 12.688ZM57.2092 10.348C57.4093 10.012 57.6733 9.752 58.0013 9.568C58.3373 9.376 58.7333 9.28 59.1892 9.28V10.696H58.8413C58.3053 10.696 57.8972 10.832 57.6172 11.104C57.3452 11.376 57.2092 11.848 57.2092 12.52V16H55.8412V9.388H57.2092V10.348ZM61.5027 8.512C61.2547 8.512 61.0467 8.428 60.8787 8.26C60.7107 8.092 60.6267 7.884 60.6267 7.636C60.6267 7.388 60.7107 7.18 60.8787 7.012C61.0467 6.844 61.2547 6.76 61.5027 6.76C61.7427 6.76 61.9467 6.844 62.1147 7.012C62.2827 7.18 62.3667 7.388 62.3667 7.636C62.3667 7.884 62.2827 8.092 62.1147 8.26C61.9467 8.428 61.7427 8.512 61.5027 8.512ZM62.1747 9.388V16H60.8067V9.388H62.1747ZM65.6988 10.36C65.9308 10.056 66.2468 9.8 66.6468 9.592C67.0468 9.384 67.4988 9.28 68.0028 9.28C68.5788 9.28 69.1028 9.424 69.5748 9.712C70.0548 9.992 70.4308 10.388 70.7028 10.9C70.9748 11.412 71.1108 12 71.1108 12.664C71.1108 13.328 70.9748 13.924 70.7028 14.452C70.4308 14.972 70.0548 15.38 69.5748 15.676C69.1028 15.964 68.5788 16.108 68.0028 16.108C67.4988 16.108 67.0508 16.008 66.6588 15.808C66.2668 15.6 65.9468 15.344 65.6988 15.04V19.144H64.3308V9.388H65.6988V10.36ZM69.7188 12.664C69.7188 12.208 69.6228 11.816 69.4308 11.488C69.2468 11.152 68.9988 10.9 68.6868 10.732C68.3828 10.556 68.0548 10.468 67.7028 10.468C67.3588 10.468 67.0308 10.556 66.7188 10.732C66.4148 10.908 66.1668 11.164 65.9748 11.5C65.7908 11.836 65.6988 12.232 65.6988 12.688C65.6988 13.144 65.7908 13.544 65.9748 13.888C66.1668 14.224 66.4148 14.48 66.7188 14.656C67.0308 14.832 67.3588 14.92 67.7028 14.92C68.0548 14.92 68.3828 14.832 68.6868 14.656C68.9988 14.472 69.2468 14.208 69.4308 13.864C69.6228 13.52 69.7188 13.12 69.7188 12.664ZM74.4196 10.504V14.164C74.4196 14.412 74.4756 14.592 74.5876 14.704C74.7076 14.808 74.9076 14.86 75.1876 14.86H76.0276V16H74.9476C74.3316 16 73.8596 15.856 73.5316 15.568C73.2036 15.28 73.0396 14.812 73.0396 14.164V10.504H72.2596V9.388H73.0396V7.744H74.4196V9.388H76.0276V10.504H74.4196Z" fill="#6070FF"/>
</svg>
