<svg width="53" height="24" viewBox="0 0 53 24" fill="none" xmlns="http://www.w3.org/2000/svg">
<rect width="53" height="24" rx="8" fill="#EBEBFF"/>
<path d="M14.196 10.684C14.42 10.252 14.74 9.912 15.156 9.664C15.572 9.408 16.052 9.28 16.596 9.28V10.768H16.188C15.588 10.768 15.104 10.916 14.736 11.212C14.376 11.5 14.196 11.98 14.196 12.652V16H12.828V9.388H14.196V10.684ZM24.077 9.388V16H22.697V14.56C22.529 15.048 22.237 15.428 21.821 15.7C21.405 15.964 20.921 16.096 20.369 16.096C19.601 16.096 18.985 15.848 18.521 15.352C18.057 14.856 17.825 14.148 17.825 13.228V9.388H19.193V13.084C19.193 13.684 19.345 14.148 19.649 14.476C19.953 14.796 20.369 14.956 20.897 14.956C21.441 14.956 21.877 14.78 22.205 14.428C22.533 14.076 22.697 13.564 22.697 12.892V9.388H24.077ZM29.8673 9.304C30.4433 9.304 30.9553 9.44 31.4033 9.712C31.8593 9.984 32.2153 10.376 32.4713 10.888C32.7273 11.4 32.8553 12 32.8553 12.688C32.8553 13.384 32.7273 13.988 32.4713 14.5C32.2153 15.012 31.8593 15.404 31.4033 15.676C30.9553 15.948 30.4433 16.084 29.8673 16.084C29.2673 16.084 28.7553 15.936 28.3313 15.64C27.9073 15.344 27.6113 14.952 27.4433 14.464V16H26.0753V7.12H27.4433V10.924C27.6113 10.436 27.9073 10.044 28.3313 9.748C28.7553 9.452 29.2673 9.304 29.8673 9.304ZM29.4473 10.504C29.0633 10.504 28.7193 10.596 28.4153 10.78C28.1113 10.956 27.8713 11.212 27.6953 11.548C27.5193 11.876 27.4313 12.256 27.4313 12.688C27.4313 13.128 27.5193 13.512 27.6953 13.84C27.8713 14.168 28.1113 14.424 28.4153 14.608C28.7193 14.784 29.0633 14.872 29.4473 14.872C30.0553 14.872 30.5433 14.68 30.9113 14.296C31.2793 13.904 31.4633 13.368 31.4633 12.688C31.4633 12.016 31.2793 11.484 30.9113 11.092C30.5433 10.7 30.0553 10.504 29.4473 10.504ZM35.313 9.388L37.293 14.248L39.129 9.388H40.653L36.657 19.144H35.133L36.561 15.844L33.777 9.388H35.313Z" fill="#6070FF"/>
</svg>
